<?xml version="1.0" encoding="utf-8"?>
<!-- Generator: Adobe Illustrator 26.0.1, SVG Export Plug-In . SVG Version: 6.00 Build 0)  -->
<svg version="1.1" id="Calque_1" xmlns="http://www.w3.org/2000/svg" xmlns:xlink="http://www.w3.org/1999/xlink" x="0px" y="0px"
	 viewBox="0 0 686.8 515.9" style="enable-background:new 0 0 686.8 515.9;" xml:space="preserve">
<style type="text/css">
	.st0{fill:#FEFEFE;}
	.st1{fill:#358AF3;}
	.st2{fill:#FC4747;}
	.st3{fill:#E3454F;}
	.st4{fill:#EA5757;}
	.st5{fill:#1459B5;}
	.st6{fill:#1DF1FE;}
	.st7{fill:#6ACAE2;}
	.st8{fill:#9B4141;}
	.st9{fill:#FE4545;}
	.st10{fill:#FA2A2A;}
	.st11{fill:#000001;}
	.st12{fill:#091113;}
	.st13{fill:#E7A5E9;}
	.st14{fill:#AE7EAF;}
</style>
<g>
	<path class="st0" d="M343.4,0c113.9,0,227.9,0,341.8,0c1.3,0,1.5,0.2,1.5,1.3c0,171.1,0,342.2,0,513.3c0,1-0.3,1.3-1.5,1.3
		c-227.9,0-455.8,0-683.7,0c-1.3,0-1.5-0.2-1.5-1.3C0,343.5,0,172.4,0,1.3C0,0.2,0.3,0,1.5,0C115.5,0,229.4,0,343.4,0z M585.4,495.5
		c0.9,0.1,1.3-0.4,1.6-1.2c0.2-0.1,0.4-0.3,0.6-0.4c0.9,0.2,1.3-0.4,1.5-1.1c0.2-0.1,0.3-0.2,0.5-0.4c0.9,0.1,1.3-0.4,1.5-1.2
		c0.2-0.1,0.3-0.2,0.5-0.4c0.9,0.1,1.3-0.4,1.6-1.2c0.2-0.1,0.3-0.2,0.5-0.3c1.3-0.3,2.4-0.9,3-2.2c0.2-0.1,0.4-0.3,0.6-0.4
		c0.9,0.2,1.3-0.4,1.5-1.1c0.2-0.1,0.4-0.2,0.6-0.4c0.9,0.2,1.3-0.4,1.5-1.1c0.2-0.1,0.3-0.2,0.5-0.4c0.9,0.1,1.3-0.4,1.5-1.2
		c0.2-0.1,0.3-0.2,0.5-0.3c0.6,0.2,0.9-0.2,0.9-0.7c0.5-0.1,0.8-0.4,1.1-0.8c0.6,0.1,0.9-0.2,0.9-0.7c0.2-0.1,0.4-0.3,0.6-0.4
		c0.9,0.2,1.3-0.4,1.5-1.1c0.2-0.1,0.4-0.3,0.6-0.4c0.9,0.2,1.3-0.4,1.5-1.1c0.2-0.1,0.4-0.2,0.5-0.4c0.3-0.1,0.7-0.1,0.9-0.2
		c10.2-7.5,20.3-15,30.5-22.5c1-0.7,1.3-1.7,1.4-2.8c0.1-3.1,0.1-6.1,0.2-9.2c0.2-4.1,0-8.2,0.8-12.2c0.4-2.1,0.1-2.2-1.6-2.4
		c-8.3-0.9-16.5-1.8-24.8-2.8c-0.9-0.1-2,0-3-1.1c3.5-0.6,6.8-1.2,10-1.8c8.3-1.5,16.5-3.1,24.6-5.5c3.3-1,5.2-2.6,5.8-6.3
		c2.2-12.8,4.4-25.6,6.1-38.5c3.8-28.6,6.2-57.2,5.6-86.1c-0.4-16.8-1.8-33.4-5.2-49.8c-0.6-2.7-1.7-4.3-4.3-5.3
		c-3.8-1.5-7.4-3.4-11.1-5.2c-0.6-0.3-1.4-0.5-1.5-1.3c-0.2-2-1.7-2.3-3.2-2.7c-6.9-1.5-13.8-3-20.7-4.5c-0.6-0.1-1.3-0.5-1.9,0.2
		c-0.8-0.1-1.7-0.2-2.5-0.4c-13.8-3.7-28-5.1-42.2-6.9c-12.9-1.7-25.8-2.7-38.8-3.3c-17.8-0.9-35.7-1-53.5,0.1
		c-7.6,0.5-15.2,1.1-22.8,1.6c-0.1-0.5-0.2-1-0.3-1.5c-4.3-32.8-15.9-62.9-34.6-90.2C378,47,294.5,12.5,212.1,28.6
		c-44.3,8.6-82.3,29.4-112.8,62.6c-46,50.1-64,109.3-53.7,176.5c7.2,47.5,29.2,87.7,64.6,120.2c44.1,40.3,96.3,58.5,156,55.1
		c29.3-1.7,57-9.7,83-23.2c16.8-8.8,32.1-19.8,46-32.6c1.8,5.2,2.9,10.6,5.6,15.4c-0.3,0.6,0,1,0.5,1.2c0,0.2,0.1,0.2,0.2,0.3
		c0.2,0.8,0.6,1.3,1.4,1.4c0.1,0.2,0.2,0.2,0.4,0.2c5.8,5.2,13.1,7.3,20,10.4c-3.3,0.9-6.5,1.3-9.5,2.2c-5.2,1.4-10.6,2.3-14.4,6.9
		c-7.8,9.3-15.7,18.6-22.7,28.4c-4.1,5.8-8.4,11.6-10.7,18.4c-0.4,1.2-0.9,2-1.8,2.9c-2.6,2.6-2,6-1.6,9.2c0.3,2.3,2.8,2.1,4.6,2.4
		c6.6,1.3,13.3,1.9,20,2.4c31.6,2.5,63.3,4.1,95.1,5.5c12.9,0.6,25.8,1.1,38.6,1.6c20.6,0.8,41.2,1.4,61.8,2.2
		c1.9,0.1,2.8-0.4,2.4-2.4C585.3,495.8,585.4,495.7,585.4,495.5z"/>
	<path class="st1" d="M395.2,387.1c-14,12.8-29.2,23.8-46,32.6c-26,13.5-53.7,21.5-83,23.2c-59.7,3.4-111.9-14.8-156-55.1
		c-35.4-32.4-57.4-72.7-64.6-120.2c-10.2-67.2,7.8-126.4,53.7-176.5c30.5-33.3,68.5-54,112.8-62.6c82.3-16,165.8,18.4,213,87.5
		c18.6,27.3,30.3,57.4,34.6,90.2c0.1,0.5,0.2,1,0.3,1.5c-5.7,1-11.4,1.7-17.2,2.2c-1.3-11-3.7-21.7-6.9-32.2
		c-6.1-19.8-15.2-38.1-27.2-54.9c-0.7-1-1.2-2.2-2.5-2.7c-0.1-7.1-1.3-14-4.2-20.5C394.3,81.7,381,70.5,362,66
		c-6.3-1.5-12.7-1.7-19.2-1c-11.5-6.2-23.5-11.2-36.1-14.9c-13.8-4-27.8-6.8-42.1-7.4c-15.9-0.8-31.8-0.2-47.6,2.9
		c-24.5,4.8-47.3,13.7-68.3,27.2c-16.3,10.5-30.7,23.2-43.2,38c-9.6,11.3-17.7,23.6-24.4,36.8c-5.4,10.8-9.8,22-13.2,33.6
		c-4.7,16.2-7,32.7-7.5,49.5c-0.3,12.3,0.9,24.5,2.9,36.6c2.3,13.7,6.2,26.9,11.5,39.7c0.3,0.7,0.2,1.6,1.3,1.7
		c-6.6,7.8-8.4,16.5-4.2,26c4.2,9.7,14.8,16.1,26.7,13.8c0,1,0.8,1.7,1.3,2.4c9.8,12.6,20.9,24.1,33.5,34
		c18.3,14.4,38.5,25.2,60.8,32.3c14.9,4.7,30.2,7.8,45.7,8.6c9.4,0.5,18.8,0.5,28.2-0.3c9.6-0.8,19.1-2.3,28.5-4.5
		c18-4.2,35-11,51.1-20.2c15.2-8.7,28.8-19.4,41.3-31.6c1.2-1.2,1.8-2.9,3.6-3.5C393.5,372.9,394.4,380,395.2,387.1z"/>
	<path class="st2" d="M442.8,210c5.8-0.5,11.5-1.3,17.2-2.2c7.6-0.5,15.2-1.1,22.8-1.6c17.8-1.1,35.7-1,53.5-0.1
		c13,0.7,25.9,1.6,38.8,3.3c14.1,1.8,28.3,3.2,42.2,6.9c0.8,0.2,1.7,0.3,2.5,0.4c6.9,1.6,13.8,3.2,20.7,4.8c2.1,0.5,4.4,0.6,4.9,3.5
		c0.1,0.4,0.8,0.8,1.4,1c3.7,1.7,7.3,3.5,11.1,5c2.1,0.9,3.1,2.3,3.5,4.5c2.9,14,4.5,28.2,5,42.4c0.4,11.9,0.4,23.9-0.2,35.9
		c-0.5,8.6-0.9,17.2-1.6,25.8c-0.5,6-0.9,12-1.6,17.9c-1.2,9.7-2.5,19.4-4,29c-1.3,8.5-3,16.9-4.5,25.4c-0.2,1.3-0.9,2-2.1,2.5
		c-5.5,2.2-11.3,3.3-17.1,4.5c-11.6,2.4-23.2,4.2-34.9,6c-3.5,0.5-7.1,1.1-10.6,0.5c-8.3-1.5-16.7-2-25.1-2.9
		c-7.7-0.8-15.5-1.3-23.2-1.5c-7.9-0.3-15.9-0.6-23.8-1c-6-0.4-12-0.3-18-0.4c-13.7-0.1-27.3-0.7-41-0.7c-7.2,0-14.4,0.7-21.5-0.9
		c-11.1-2.4-22.1-5.2-31.7-11.6c-0.5-0.4-1.2-0.7-1.9-0.6c-0.2,0-0.3,0-0.4-0.2c-0.1-0.8-0.6-1.3-1.4-1.4c-0.2,0-0.2-0.1-0.2-0.3
		c0.1-0.5,0-1-0.5-1.2c-2.7-4.8-3.8-10.2-5.6-15.4c-0.9-7.1-1.8-14.2-2.6-21.3c0-0.5,0.1-1,0.1-1.5c-0.7-8.9-0.9-17.8-0.9-26.7
		c0.1-22.5,1.6-45,3.7-67.4c1.5-16.2,3.5-32.4,5.6-48.6c0.2-1.7,0.9-2.7,2.7-3.1c6.2-1.4,12.3-3.1,18.6-4.5
		C429.2,212.6,436,211.3,442.8,210z M426.4,231.1c-0.4-0.3-0.8-0.2-1.2-0.2c-5.6,0.8-8.8,4.2-10.9,9.3
		c-7.4,17.6-10.1,36.1-10.7,54.9c-0.2,6.2,0,12.5,0.3,18.8c0.5,11.1,1.6,22,3.1,33c2,14.6,4.8,29,8.2,43.3c0.5,2.2,1.7,3.3,3.9,3.7
		c3.3,0.7,6.6,0.4,9.9,0.5c0.8,0,1.5-0.1,1.6-1.2c2.9,0.3,5.7,1.3,8.6,2c17.1,3.8,34.4,5.3,51.8,5.8c20,0.6,39.9-0.2,59.8-1.8
		c23.4-1.9,46.6-4.9,69.7-8.8c1.7-0.3,2.6-1,2.9-2.6c0.5-2.2,1.2-4.4,1.7-6.7c4.6-19.5,7.3-39.2,8-59.2c0.4-11.2,0.2-22.4-0.5-33.6
		c-1.1-18-3.7-35.8-7.8-53.3c-0.6-2.7-1.9-3.9-4.5-4.7c-21.1-6.4-42.9-8.8-64.8-9.6c-18-0.7-36-0.3-54,1.1
		c-12.7,0.9-25.4,2.2-38,3.8C451,227,438.8,229.2,426.4,231.1z"/>
	<path class="st3" d="M587.5,493.9c-0.2,0.1-0.4,0.3-0.6,0.4c-0.8,0-1.3,0.5-1.6,1.2c0,0.2-0.1,0.3-0.3,0.3c-0.5,0-1.1,0.1-1.6,0.1
		c-0.9-2.4-2.9-4-4.1-6.1c0-0.7,0.3-1.1,0.8-1.5c3-3.1,6-6.2,9-9.4c4.6-4.8,9.4-9.3,14.2-13.9c10.3-10.1,20.6-20.1,31.7-29.4
		c2.7-2.2,5.3-4.8,8.7-6c0,6.7-0.9,13.3-0.5,20c0.1,1.8-0.6,3.1-2,4.1c-7.3,5.4-14.7,10.7-22,16.2c-2.8,2.1-6,3.8-8.2,6.7
		c-0.2,0.1-0.4,0.2-0.5,0.4c-0.8,0-1.3,0.4-1.5,1.1c-0.2,0.1-0.4,0.3-0.6,0.4c-0.8,0-1.2,0.4-1.5,1.1c-0.2,0.1-0.4,0.3-0.6,0.4
		c-0.5,0-0.8,0.2-0.9,0.7c-0.3,0.4-0.6,0.7-1.1,0.8c-0.5,0-0.8,0.2-0.9,0.7c-0.2,0.1-0.3,0.2-0.5,0.3c-0.8,0-1.3,0.4-1.5,1.2
		c-0.2,0.1-0.3,0.2-0.5,0.4c-0.8,0-1.3,0.4-1.5,1.1c-0.2,0.1-0.4,0.2-0.6,0.4c-0.8,0-1.3,0.4-1.5,1.1c-0.2,0.1-0.4,0.3-0.6,0.4
		c-1.2,0.4-2.4,1-3,2.2c-0.2,0.1-0.3,0.2-0.5,0.3c-0.8,0-1.3,0.4-1.6,1.2c-0.2,0.1-0.3,0.2-0.5,0.4c-0.8,0-1.3,0.4-1.5,1.2
		c-0.2,0.1-0.3,0.2-0.5,0.4C588.3,492.8,587.8,493.2,587.5,493.9z"/>
	<path class="st4" d="M611,476.6c2.2-2.9,5.4-4.6,8.2-6.7c7.3-5.5,14.7-10.8,22-16.2c1.4-1,2.1-2.2,2-4.1c-0.4-6.7,0.5-13.3,0.5-20
		c0.1-0.9-0.2-1.5-1.2-1.5c-1.9-0.1-3.9-0.3-5.8-0.5c-5-0.5-10.1-1-15.1-1.7c-6.7-0.9-13.3-1.8-20.1,0c-2.9,0.8-6.1,1.5-9,1
		c-9.5-1.5-19.1-2.5-28.6-3.3c-8.5-0.8-17-1.2-25.6-1.5c-8.3-0.3-16.6-0.5-24.8-1c-6.6-0.4-13.2-0.4-19.8-0.4
		c-16.3-0.1-32.6-0.8-48.9-0.7c-2.5,0-4.9-0.3-7.3-0.8c-4.5-0.9-8.9-2.4-13.5-1.7c-5.8,1-11.7,1.8-17.2,4.1c-1.5,0.6-3,1-4.2,2.2
		c-3.3,3.3-6.2,6.9-9.2,10.5c-4.9,6-9.9,12-14.4,18.3c-5.2,7.1-10.8,14-12.6,22.9c-0.6,0.1-1.4-0.2-1.9,0.5
		c-0.7,0.9-1.4,7.3-0.8,8.2c0.5,0.7,1.1,0.9,1.9,1c4.2,0.6,8.3,1.3,12.5,1.8c6.8,0.7,13.6,1.1,20.4,1.8c3.6,0.4,7.2,0.6,10.8,0.8
		c6.5,0.3,13,0.9,19.5,1.2c5,0.2,10.1,0.6,15.1,0.9c4.4,0.3,8.8,0.5,13.3,0.6c2.4,0,4.7,0.6,7.1,0.5c5-0.2,10,0.5,15,0.6
		c2.8,0,5.6,0.6,8.3,0.5c5.2-0.3,10.3,0.8,15.6,0.6c3-0.2,6.1,0.7,9.1,0.4c5.4-0.6,10.7,0.6,16.1,0.5c6.2-0.1,12.6,0.3,18.9,0.8
		c3.4,0.3,6.7,0.2,10.1,0.3c3.5,0.1,6.9,0.6,10.4,0.5c4.1-0.1,8.2,0,12.3,0.5c1.4,0.2,2.9,0.3,3.7-1.4c0.5,0,1.1-0.1,1.6-0.1
		c0.4,2-0.5,2.5-2.4,2.4c-20.6-0.8-41.2-1.5-61.8-2.2c-12.9-0.5-25.8-1-38.6-1.6c-31.7-1.4-63.4-3-95-5.5c-6.7-0.5-13.4-1.1-20-2.4
		c-1.7-0.3-4.2-0.1-4.6-2.4c-0.5-3.1-1.1-6.6,1.6-9.2c0.9-0.9,1.4-1.8,1.8-2.9c2.3-6.8,6.6-12.6,10.7-18.4
		c7.1-9.9,15-19.1,22.7-28.4c3.8-4.6,9.2-5.5,14.4-6.9c3.1-0.8,6.3-1.3,9.5-2.2c-6.9-3-14.3-5.2-20-10.4c0.7-0.1,1.3,0.2,1.9,0.6
		c9.6,6.5,20.6,9.2,31.7,11.6c7.2,1.6,14.4,0.9,21.5,0.9c13.7,0,27.3,0.6,41,0.7c6,0,12,0,18,0.4c7.9,0.5,15.9,0.8,23.8,1
		c7.8,0.3,15.5,0.8,23.2,1.5c8.4,0.8,16.8,1.4,25.1,2.9c3.5,0.6,7.1,0.1,10.6-0.5c11.7-1.8,23.3-3.7,34.9-6
		c5.8-1.2,11.6-2.2,17.1-4.5c1.2-0.5,1.9-1.2,2.1-2.5c1.5-8.5,3.1-16.9,4.5-25.4c1.5-9.7,2.8-19.3,4-29c0.7-5.9,1.1-11.9,1.6-17.9
		c0.8-8.6,1.1-17.2,1.6-25.8c0.7-12,0.6-23.9,0.2-35.9c-0.5-14.2-2.1-28.4-5-42.4c-0.4-2.2-1.4-3.6-3.5-4.5c-3.8-1.5-7.4-3.3-11.1-5
		c-0.5-0.2-1.3-0.6-1.4-1c-0.5-2.9-2.8-3-4.9-3.5c-6.9-1.6-13.8-3.2-20.7-4.8c0.5-0.7,1.2-0.4,1.9-0.2c6.9,1.5,13.8,3,20.7,4.5
		c1.5,0.3,3,0.7,3.2,2.7c0.1,0.8,0.9,1,1.5,1.3c3.7,1.8,7.3,3.7,11.1,5.2c2.6,1,3.8,2.7,4.3,5.3c3.4,16.4,4.9,33.1,5.2,49.8
		c0.6,28.9-1.8,57.5-5.6,86.1c-1.7,12.9-3.9,25.7-6.1,38.5c-0.6,3.8-2.5,5.4-5.8,6.3c-8.1,2.4-16.3,4-24.6,5.5
		c-3.2,0.6-6.5,1.2-10,1.8c1,1.1,2.1,1,3,1.1c8.3,1,16.5,1.9,24.8,2.8c1.6,0.2,2,0.2,1.6,2.4c-0.8,3.9-0.6,8.1-0.8,12.2
		c-0.1,3-0.2,6.1-0.2,9.2c0,1.2-0.4,2.1-1.4,2.8c-10.2,7.5-20.3,15-30.5,22.5C611.7,476.6,611.3,476.5,611,476.6z"/>
	<path class="st4" d="M593.6,489.4c0.6-1.3,1.8-1.8,3-2.2C596.1,488.5,595,489.1,593.6,489.4z"/>
	<path class="st4" d="M401.6,404.1c0.8,0.1,1.3,0.6,1.4,1.4C402.2,405.4,401.8,404.9,401.6,404.1z"/>
	<path class="st4" d="M608.9,478.1c0.2-0.7,0.7-1.1,1.5-1.1C610.2,477.7,609.8,478.3,608.9,478.1z"/>
	<path class="st4" d="M606.9,479.6c0.2-0.7,0.7-1.1,1.5-1.1C608.2,479.3,607.8,479.8,606.9,479.6z"/>
	<path class="st4" d="M601.3,483.8c0.2-0.8,0.7-1.2,1.5-1.2C602.6,483.4,602.2,483.9,601.3,483.8z"/>
	<path class="st4" d="M599.3,485.3c0.2-0.8,0.7-1.1,1.5-1.1C600.5,484.9,600.2,485.4,599.3,485.3z"/>
	<path class="st4" d="M597.2,486.8c0.2-0.7,0.7-1.1,1.5-1.1C598.5,486.4,598.1,486.9,597.2,486.8z"/>
	<path class="st4" d="M591.6,490.9c0.2-0.8,0.7-1.2,1.6-1.2C592.9,490.5,592.5,491,591.6,490.9z"/>
	<path class="st4" d="M589.6,492.4c0.2-0.8,0.7-1.2,1.5-1.2C590.9,492,590.5,492.6,589.6,492.4z"/>
	<path class="st4" d="M587.5,493.9c0.2-0.8,0.7-1.1,1.5-1.1C588.8,493.5,588.4,494.1,587.5,493.9z"/>
	<path class="st4" d="M585.4,495.5c0.3-0.7,0.8-1.2,1.6-1.2C586.8,495.1,586.3,495.6,585.4,495.5z"/>
	<path class="st4" d="M400.8,402.6c0.6,0.2,0.6,0.7,0.5,1.2C400.9,403.5,400.5,403.2,400.8,402.6z"/>
	<path class="st4" d="M605.4,480.8c0.1-0.5,0.5-0.7,0.9-0.7C606.3,480.6,606,480.9,605.4,480.8z"/>
	<path class="st4" d="M603.3,482.3c0.1-0.5,0.5-0.7,0.9-0.7C604.2,482.1,603.9,482.4,603.3,482.3z"/>
	<path class="st5" d="M442.8,210c-6.8,1.3-13.7,2.5-20.4,4c-6.2,1.4-12.4,3.1-18.6,4.5c-1.8,0.4-2.5,1.4-2.7,3.1
		c-2.1,16.2-4.1,32.3-5.6,48.6c-2.1,22.4-3.6,44.8-3.7,67.4c0,8.9,0.2,17.8,0.9,26.7c0,0.5-0.1,1-0.1,1.5c-1.8,0.6-2.4,2.4-3.6,3.5
		c-12.5,12.2-26.1,22.9-41.3,31.6c-16.1,9.2-33.1,16-51.1,20.2c-9.4,2.2-18.9,3.8-28.5,4.5c-9.4,0.8-18.9,0.8-28.2,0.3
		c-15.6-0.9-30.8-3.9-45.7-8.6c-22.2-7.1-42.5-17.9-60.8-32.3c-12.6-9.9-23.6-21.3-33.5-34c-0.5-0.7-1.3-1.4-1.3-2.4
		c1-0.3,2.1-0.6,3.2-1c11-3.8,17.5-14.9,15.6-26.7c-1.7-11-12-19.7-23.3-19.8c-7.1,0-13,2.7-18,7.7c-1-0.1-1-1-1.3-1.7
		c-5.3-12.8-9.2-26-11.5-39.7c-2-12.1-3.3-24.3-2.9-36.6c0.5-16.8,2.8-33.3,7.5-49.5c3.4-11.6,7.7-22.8,13.2-33.6
		c6.7-13.2,14.8-25.5,24.4-36.8c12.5-14.8,26.8-27.5,43.2-38c21-13.5,43.8-22.4,68.3-27.2c15.8-3.1,31.7-3.7,47.6-2.9
		c14.3,0.7,28.3,3.4,42.1,7.4c12.6,3.7,24.6,8.7,36.1,14.9c-0.7,0.2-1.3,0.4-2,0.5c-25.4,4.1-46.3,26-46.8,54.4
		c-0.2,13.8,4.2,26.2,13.2,36.8c21.1,25.2,59.4,27,82.5,3.7c11.1-11.1,16.3-24.7,16.4-40.3c1.3,0.5,1.8,1.7,2.5,2.7
		c12,16.9,21.1,35.2,27.2,54.9C439.1,188.3,441.5,199.1,442.8,210z M337.9,207.6c-3.2,0.1-6.8,0.5-10.2,1.8
		c-19.4,7-24.7,30.7-9.7,44.2c10.6,9.5,26.8,10.2,38.2,1.4c11.7-9,13.8-24.8,4.8-36.4C355.3,211.2,347.5,207.8,337.9,207.6z
		 M154.9,207.7c-2-0.1-4.5,0.1-6.9,0.7c-10.5,2.9-18.1,9.2-20.7,20c-2.6,10.7,1,19.6,9.5,26.5c11.2,9.1,28.6,8.2,38.9-2
		c6.2-6.1,9.1-13.5,7.7-22.2C181.2,217,169.7,207.7,154.9,207.7z M252.6,313.8c-8.8,0-17.7,0-26.5,0c-1.9,0-2.4,0.7-2,2.4
		c0.5,1.9,0.9,3.8,1.7,5.6c5.5,12.3,19.5,19.1,33.1,16c11.3-2.6,20-11.2,21.7-21.5c0.3-2,0-2.4-2-2.4
		C270,313.8,261.3,313.8,252.6,313.8z"/>
	<path class="st6" d="M406.2,120.2c-0.1,15.6-5.3,29.2-16.4,40.3c-23.2,23.3-61.5,21.5-82.5-3.7c-8.9-10.7-13.4-23-13.2-36.8
		c0.5-28.4,21.4-50.3,46.8-54.4c0.7-0.1,1.3-0.3,2-0.5c6.4-0.7,12.8-0.5,19.2,1c19,4.5,32.3,15.7,40,33.6
		C404.8,106.2,406.1,113.1,406.2,120.2z"/>
	<path class="st6" d="M76.1,308.8c4.9-5,10.9-7.7,18-7.7c11.3,0.1,21.6,8.8,23.3,19.8c1.9,11.8-4.7,22.9-15.6,26.7
		c-1,0.4-2.1,0.7-3.2,1c-12,2.3-22.5-4.1-26.7-13.8C67.8,325.3,69.5,316.6,76.1,308.8z"/>
	<path class="st7" d="M426.4,231.1c12.3-1.8,24.6-4,37-5.6c12.6-1.6,25.3-2.9,38-3.8c18-1.3,36-1.7,54-1.1
		c21.9,0.8,43.7,3.2,64.8,9.6c2.6,0.8,3.9,2.1,4.5,4.7c4.1,17.6,6.7,35.3,7.8,53.3c0.7,11.2,0.9,22.4,0.5,33.6
		c-0.7,20-3.4,39.7-8,59.2c-0.5,2.2-1.2,4.4-1.7,6.7c-0.3,1.7-1.3,2.4-2.9,2.6c-23.1,3.9-46.3,6.9-69.7,8.8
		c-19.9,1.6-39.9,2.4-59.8,1.8c-17.4-0.5-34.7-2-51.8-5.8c-2.9-0.6-5.7-1.6-8.6-1.9c-3.9-0.7-4.2-3.6-4.6-6.8
		c-0.7-5.5-1.5-10.9-2.2-16.4c-2.5-18.1-4-36.2-4.8-54.5c-0.5-11.7-0.8-23.4-0.2-35.1c0.5-12,1.5-23.9,3.8-35.6
		C423.4,240.2,424,235.4,426.4,231.1z M549.4,286.8c-8.1,0-14.7,6.4-14.8,14.6c-0.1,8.2,6.5,15.1,14.7,15.1
		c8.1,0,14.7-6.6,14.7-14.8C564,293.5,557.5,286.8,549.4,286.8z M513.9,360c10.8-0.1,21-1.5,31-4.6c1.7-0.5,2.8-3.4,1.8-5.3
		c-0.8-1.7-2.1-0.4-3.1-0.1c-13.4,4.2-27,5.8-41,3.8c-12-1.8-23.2-5.9-33.2-12.7c-0.6-0.4-1.2-1.5-2.1-0.3c-1.5,2-1.1,4.9,1.1,6.3
		C482.4,356.1,497.8,359.9,513.9,360z M473.1,286.8c-6.6,0-11.9,5.3-11.9,12c-0.1,6.7,5.2,12.1,11.8,12.1c6.6,0,11.9-5.3,12-12
		C484.9,292.2,479.6,286.8,473.1,286.8z M460.6,322.9c0.2-1.9-0.4-3.8-1.2-5.7c-3.6-8.5-13.8-9.8-19.3-2.4
		c-3.7,4.9-3.7,12.3,0.1,17.1c2,2.5,4.5,4.4,7.9,4.5C455.4,336.7,460.6,331.1,460.6,322.9z M552.3,339c-0.2,1.5,0.5,3.5,1.4,5.4
		c2.1,4.7,7.3,7.5,11.6,6.9c8.5-1.2,13.6-12.6,7.9-21.2c-4.7-7.1-14-7-18.7,0.2C553,332.7,552.4,335.4,552.3,339z"/>
	<path class="st8" d="M426.4,231.1c-2.4,4.3-3.1,9.1-4,13.8c-2.3,11.8-3.2,23.7-3.8,35.6c-0.5,11.7-0.3,23.4,0.2,35.1
		c0.8,18.2,2.4,36.4,4.8,54.5c0.8,5.5,1.5,10.9,2.2,16.4c0.4,3.1,0.8,6.1,4.6,6.8c0,1.1-0.7,1.2-1.6,1.2c-3.3-0.1-6.6,0.2-9.9-0.5
		c-2.2-0.5-3.4-1.5-3.9-3.7c-3.4-14.3-6.2-28.7-8.2-43.3c-1.5-11-2.6-22-3.1-33c-0.3-6.3-0.5-12.5-0.3-18.8
		c0.6-18.9,3.3-37.3,10.7-54.9c2.1-5.1,5.3-8.5,10.9-9.3C425.7,230.8,426.1,230.8,426.4,231.1z"/>
	<path class="st9" d="M366.3,475.5c1.8-9,7.5-15.8,12.6-22.9c4.6-6.3,9.5-12.3,14.4-18.3c2.9-3.6,5.9-7.2,9.2-10.5
		c1.2-1.2,2.8-1.6,4.2-2.2c5.5-2.2,11.4-3.1,17.2-4.1c4.6-0.8,9.1,0.8,13.5,1.7c2.4,0.5,4.8,0.8,7.3,0.8c16.3-0.2,32.6,0.6,48.9,0.7
		c6.6,0,13.2,0,19.8,0.4c8.3,0.5,16.6,0.7,24.8,1c8.5,0.3,17.1,0.8,25.6,1.5c9.6,0.9,19.1,1.9,28.6,3.3c2.9,0.4,6.1-0.3,9-1
		c6.7-1.8,13.4-0.8,20.1,0c5,0.7,10.1,1.2,15.1,1.7c1.9,0.2,3.9,0.4,5.8,0.5c1.1,0.1,1.3,0.7,1.2,1.5c-3.4,1.2-6,3.8-8.7,6
		c-11.1,9.2-21.3,19.3-31.7,29.4c-4.7,4.6-9.6,9.1-14.2,13.9c-3,3.1-5.9,6.3-9,9.4c-0.4,0.4-0.8,0.9-0.8,1.5c-1.3,0.4-2.6,0.6-4,0.5
		c-7.1-0.4-14.2-0.5-21.3-1.1c-2.9-0.3-5.7-0.2-8.6-0.5c-8.8-0.7-17.5-1.4-26.2-2c-5.8-0.4-11.6-0.7-17.4-1.2
		c-9.1-0.7-18.2-1.3-27.3-2c-2.9-0.2-5.7-0.3-8.6-0.5c-8.4-0.6-16.8-1.4-25.2-1.9c-5.5-0.4-11-0.8-16.4-1.2
		c-10.5-0.6-21-1.8-31.5-2.4c-6.3-0.4-12.6-1.1-19-1.2C371.3,476.3,368.7,476.6,366.3,475.5z"/>
	<path class="st10" d="M366.3,475.5c2.4,1.1,5,0.8,7.5,0.9c6.3,0.2,12.7,0.9,19,1.2c10.5,0.6,21,1.8,31.5,2.4
		c5.5,0.3,11,0.8,16.4,1.2c8.4,0.6,16.8,1.3,25.2,1.9c2.9,0.2,5.7,0.3,8.6,0.5c9.1,0.6,18.2,1.3,27.3,2c5.8,0.4,11.6,0.8,17.4,1.2
		c8.8,0.6,17.5,1.3,26.2,2c2.9,0.2,5.7,0.2,8.6,0.5c7.1,0.6,14.2,0.8,21.3,1.1c1.4,0.1,2.7-0.1,4-0.5c1.2,2.2,3.2,3.8,4.1,6.1
		c-0.7,1.7-2.2,1.5-3.7,1.4c-4.1-0.4-8.2-0.6-12.3-0.5c-3.5,0.1-6.9-0.4-10.4-0.5c-3.3-0.1-6.7,0-10.1-0.3
		c-6.3-0.5-12.6-0.9-18.9-0.8c-5.4,0.1-10.7-1-16.1-0.5c-3,0.3-6.1-0.5-9.1-0.4c-5.2,0.3-10.3-0.9-15.6-0.6
		c-2.8,0.2-5.6-0.4-8.3-0.5c-5,0-10-0.8-15-0.6c-2.3,0.1-4.7-0.4-7.1-0.5c-4.4-0.1-8.9-0.3-13.3-0.6c-5-0.3-10-0.7-15.1-0.9
		c-6.5-0.2-13-0.9-19.5-1.2c-3.6-0.2-7.2-0.4-10.8-0.8c-6.8-0.8-13.6-1.2-20.4-1.8c-4.2-0.4-8.3-1.2-12.5-1.8
		c-0.8-0.1-1.5-0.3-1.9-1c-0.6-0.9,0.1-7.4,0.8-8.2C364.9,475.3,365.6,475.6,366.3,475.5z"/>
	<path class="st11" d="M337.9,207.6c9.6,0.2,17.4,3.6,23.2,11c9.1,11.5,6.9,27.4-4.8,36.4c-11.4,8.8-27.6,8.2-38.2-1.4
		c-15-13.5-9.7-37.2,9.7-44.2C331.2,208.1,334.7,207.7,337.9,207.6z"/>
	<path class="st11" d="M154.9,207.7c14.8,0,26.3,9.3,28.5,23c1.4,8.6-1.5,16-7.7,22.2c-10.3,10.1-27.8,11-38.9,2
		c-8.4-6.9-12.1-15.8-9.5-26.5c2.6-10.8,10.2-17.1,20.7-20C150.4,207.8,152.9,207.6,154.9,207.7z"/>
	<path class="st11" d="M252.6,313.8c8.7,0,17.3,0.1,26,0c2,0,2.4,0.5,2,2.4c-1.8,10.3-10.4,18.9-21.7,21.5
		c-13.5,3.1-27.5-3.6-33.1-16c-0.8-1.8-1.3-3.7-1.7-5.6c-0.4-1.7,0-2.4,2-2.4C235,313.8,243.8,313.8,252.6,313.8z"/>
	<path class="st11" d="M549.4,286.8c8.1,0,14.6,6.8,14.5,14.9c-0.1,8.2-6.7,14.8-14.7,14.8c-8.2,0-14.8-6.8-14.7-15.1
		C534.7,293.2,541.3,286.7,549.4,286.8z"/>
	<path class="st12" d="M513.9,360c-16.1,0-31.5-3.8-45.5-13c-2.1-1.4-2.6-4.3-1.1-6.3c0.9-1.1,1.5-0.1,2.1,0.3
		c10.1,6.9,21.2,11,33.2,12.7c13.9,2,27.6,0.5,41-3.8c0.9-0.3,2.2-1.6,3.1,0.1c0.9,1.9-0.1,4.8-1.8,5.3
		C535,358.4,524.8,359.9,513.9,360z"/>
	<path class="st11" d="M473.1,286.8c6.6,0,11.8,5.5,11.8,12.1c-0.1,6.7-5.4,12-12,12c-6.5,0-11.8-5.5-11.8-12.1
		C461.2,292,466.5,286.7,473.1,286.8z"/>
	<path class="st13" d="M460.6,322.9c0,8.2-5.2,13.8-12.5,13.5c-3.4-0.1-5.9-2-7.9-4.5c-3.8-4.8-3.8-12.2-0.1-17.1
		c5.5-7.3,15.7-6,19.3,2.4C460.2,319,460.8,321,460.6,322.9z M448.4,320.4c0.1-1.4-0.1-2.2-1.3-2.5c-1.1-0.2-2,0.2-2.3,1.4
		c-0.7,2.4-1.5,4.8-2.2,7.2c-0.4,1.2,0.4,1.9,1.4,2.3c1,0.4,1.8-0.1,2.1-0.9C447.1,325.5,447.9,322.8,448.4,320.4z M454.1,323
		c0-1.2-0.4-2.1-1.5-2.4c-1.2-0.3-1.8,0.6-2.1,1.7c-0.7,2.3-1.2,4.7-1.9,7.1c-0.3,1.1,0.3,1.8,1.2,2.2c1.1,0.4,2.1-0.1,2.4-1.2
		C452.9,328,453.5,325.5,454.1,323z"/>
	<path class="st13" d="M552.3,339c0.1-3.6,0.7-6.3,2.2-8.7c4.7-7.2,13.9-7.3,18.7-0.2c5.7,8.6,0.6,20-7.9,21.2
		c-4.4,0.6-9.6-2.2-11.6-6.9C552.8,342.5,552.2,340.4,552.3,339z M571.7,339.5c-0.7-2.2-1.4-4.9-2.3-7.6c-0.3-0.8-1.2-1.2-2.1-0.9
		c-1,0.3-1.8,1.1-1.5,2.1c0.7,2.7,1.6,5.3,2.5,7.9c0.4,1.1,1.4,1.1,2.3,0.9C571.5,341.6,571.8,341,571.7,339.5z M563.6,341.8
		c-0.3-2.4-0.7-4.9-1-7.3c-0.2-1-0.8-1.8-1.9-1.7c-1.2,0.1-1.8,0.8-1.7,2.1c0.2,2.5,0.4,5.1,0.7,7.6c0.2,1.1,0.8,2.2,2.2,1.9
		C563.2,344.1,563.6,343.1,563.6,341.8z"/>
	<path class="st14" d="M448.4,320.4c-0.5,2.4-1.3,5-2.3,7.6c-0.3,0.8-1.1,1.3-2.1,0.9c-1-0.4-1.7-1.1-1.4-2.3
		c0.7-2.4,1.5-4.8,2.2-7.2c0.4-1.2,1.2-1.6,2.3-1.4C448.2,318.2,448.4,319.1,448.4,320.4z"/>
	<path class="st14" d="M454.1,323c-0.6,2.5-1.1,4.9-1.8,7.3c-0.3,1.1-1.3,1.6-2.4,1.2c-0.9-0.3-1.5-1.1-1.2-2.2
		c0.6-2.4,1.2-4.7,1.9-7.1c0.3-1,0.9-2,2.1-1.7C453.6,320.9,454.1,321.9,454.1,323z"/>
	<path class="st14" d="M571.7,339.5c0,1.5-0.3,2.1-1.2,2.3c-1,0.2-2,0.2-2.3-0.9c-0.9-2.6-1.8-5.2-2.5-7.9c-0.2-0.9,0.5-1.8,1.5-2.1
		c0.9-0.3,1.9,0.2,2.1,0.9C570.4,334.6,571.1,337.3,571.7,339.5z"/>
	<path class="st14" d="M563.6,341.8c0.1,1.2-0.4,2.2-1.6,2.5c-1.4,0.3-2.1-0.7-2.2-1.9c-0.3-2.5-0.5-5-0.7-7.6
		c-0.1-1.2,0.5-2,1.7-2.1c1.1-0.1,1.7,0.7,1.9,1.7C562.9,337,563.2,339.4,563.6,341.8z"/>
</g>
</svg>
